<!-- Generated by IcoMoon.io -->
<svg version="1.1" xmlns="http://www.w3.org/2000/svg" width="64" height="32" viewBox="0 0 64 32">
<title>ALARM</title>
<path d="M6.558 2.027c-0.338-0.788-0.97-1.421-1.758-1.758 0.213-0.168 0.482-0.269 0.774-0.269 0.692 0 1.253 0.561 1.253 1.253 0 0.292-0.101 0.561-0.269 0.774zM6.507 3.413c0 0.822-0.323 1.567-0.845 2.121l0.433 0.433c0.057 0.057 0.093 0.136 0.093 0.224 0 0.175-0.142 0.316-0.316 0.316-0.087 0-0.167-0.035-0.224-0.093l-0.465-0.465c-0.502 0.35-1.11 0.557-1.769 0.557-0.657 0-1.265-0.206-1.766-0.555l-0.461 0.461c-0.058 0.058-0.138 0.094-0.226 0.094-0.177 0-0.32-0.143-0.32-0.32 0-0.088 0.036-0.168 0.094-0.226l0.429-0.429c-0.521-0.554-0.843-1.298-0.843-2.118 0-1.708 1.385-3.093 3.093-3.093s3.093 1.385 3.093 3.093zM3.413 0.96c-1.355 0-2.453 1.098-2.453 2.453s1.098 2.453 2.453 2.453 2.453-1.098 2.453-2.453c0-1.355-1.098-2.453-2.453-2.453zM4.693 3.733h-1.28c-0.177 0-0.32-0.143-0.32-0.32v-1.707c0-0.177 0.143-0.32 0.32-0.32s0.32 0.143 0.32 0.32v1.386h0.96c0.177 0 0.32 0.143 0.32 0.32s-0.143 0.32-0.32 0.32zM0.275 2.070c-0.172-0.218-0.275-0.492-0.275-0.79 0-0.707 0.573-1.28 1.28-1.28 0.299 0 0.573 0.103 0.791 0.275-0.805 0.345-1.451 0.991-1.796 1.796z"></path>
</svg>
