<!-- Generated by IcoMoon.io -->
<svg version="1.1" xmlns="http://www.w3.org/2000/svg" width="64" height="32" viewBox="0 0 64 32">
<title>BOOK</title>
<path d="M6.627 5.523l-3.087 1.277c-0.039 0.017-0.082 0.026-0.127 0.026s-0.088-0.009-0.127-0.026l-3.087-1.277c-0.117-0.048-0.199-0.162-0.199-0.296v-4.907c0-0.177 0.143-0.32 0.32-0.32 0.043 0 0.085 0.009 0.122 0.024h0l0 0c0.001 0 0.002 0.001 0.003 0.001l2.968 1.228 2.968-1.228c0.001-0 0.002-0.001 0.003-0.001l0.001-0c0.038-0.016 0.079-0.024 0.122-0.024 0.177 0 0.32 0.143 0.32 0.32v4.907c0 0.134-0.083 0.249-0.199 0.296zM3.093 1.814l-2.453-1.015v4.214l2.453 1.015v-4.214zM6.187 0.799l-2.453 1.015v4.214l2.453-1.015v-4.214zM4.241 2.269l1.173-0.533c0.040-0.018 0.085-0.029 0.132-0.029 0.177 0 0.32 0.143 0.32 0.32 0 0.13-0.077 0.241-0.188 0.291v0l-1.173 0.533c-0.041 0.019-0.085 0.029-0.132 0.029-0.177 0-0.32-0.143-0.32-0.32 0-0.13 0.077-0.241 0.188-0.291zM4.241 3.442v0l1.173-0.533c0.040-0.018 0.085-0.029 0.132-0.029 0.177 0 0.32 0.143 0.32 0.32 0 0.13-0.077 0.241-0.188 0.291l-1.173 0.533c-0.041 0.018-0.085 0.029-0.132 0.029-0.177 0-0.32-0.143-0.32-0.32 0-0.13 0.077-0.241 0.188-0.291zM4.241 4.615v0l1.173-0.533c0.040-0.018 0.085-0.029 0.132-0.029 0.177 0 0.32 0.143 0.32 0.32 0 0.13-0.077 0.241-0.188 0.291v0l-1.173 0.533c-0.041 0.019-0.085 0.029-0.132 0.029-0.177 0-0.32-0.143-0.32-0.32 0-0.13 0.077-0.241 0.188-0.291zM1.28 1.707c0.047 0 0.092 0.010 0.132 0.029v0l1.173 0.533c0.111 0.050 0.188 0.162 0.188 0.291 0 0.177-0.143 0.32-0.32 0.32-0.047 0-0.092-0.010-0.132-0.029v0l-1.173-0.533c-0.111-0.050-0.188-0.162-0.188-0.291 0-0.177 0.143-0.32 0.32-0.32zM1.28 2.88c0.047 0 0.092 0.010 0.132 0.029v0l1.173 0.533c0.111 0.050 0.188 0.162 0.188 0.291 0 0.177-0.143 0.32-0.32 0.32-0.047 0-0.092-0.010-0.132-0.029v0l-1.173-0.533c-0.111-0.050-0.188-0.162-0.188-0.291 0-0.177 0.143-0.32 0.32-0.32zM1.28 4.053c0.047 0 0.092 0.010 0.132 0.029v0l1.173 0.533c0.111 0.050 0.188 0.162 0.188 0.291 0 0.177-0.143 0.32-0.32 0.32-0.047 0-0.092-0.010-0.132-0.029v0l-1.173-0.533c-0.111-0.050-0.188-0.162-0.188-0.291 0-0.177 0.143-0.32 0.32-0.32z"></path>
</svg>
