<!-- Generated by IcoMoon.io -->
<svg version="1.1" xmlns="http://www.w3.org/2000/svg" width="64" height="32" viewBox="0 0 64 32">
<title>COMPUTER_OK</title>
<path d="M6.4 4.907h-2.027v0.533l0.427 0.427v0.107h-2.773v-0.107l0.427-0.427v-0.533h-2.027c-0.177 0-0.32-0.143-0.32-0.32v-4.266c0-0.177 0.143-0.32 0.32-0.32h5.973c0.177 0 0.32 0.143 0.32 0.32v4.266c0 0.177-0.143 0.32-0.32 0.32zM6.293 0.427h-5.76v3.627h5.76v-3.627zM2.773 1.92c0.088 0 0.168 0.036 0.226 0.094v0l0.2 0.2 0.627-0.627c0.058-0.058 0.138-0.094 0.226-0.094 0.177 0 0.32 0.143 0.32 0.32 0 0.088-0.036 0.168-0.094 0.226v0l-0.853 0.853c-0.058 0.058-0.138 0.094-0.226 0.094s-0.168-0.036-0.226-0.094v0l-0.427-0.427c-0.058-0.058-0.094-0.138-0.094-0.226 0-0.177 0.143-0.32 0.32-0.32z"></path>
</svg>
