<!-- Generated by IcoMoon.io -->
<svg version="1.1" xmlns="http://www.w3.org/2000/svg" width="64" height="32" viewBox="0 0 64 32">
<title>facebook</title>
<path d="M2.579 0.042c0 0.315 0 0.879 0 0.879s-0.648-0.065-0.81 0.184c-0.089 0.136-0.036 0.533-0.044 0.819 0.283 0 0.577 0 0.86 0-0.073 0.334-0.125 0.56-0.178 0.849-0.245 0-0.686 0-0.686 0v2.732c0 0-0.81 0-1.191 0 0-0.842-0-1.824 0-2.721-0.185 0-0.322 0-0.507 0 0-0.315 0-0.544 0-0.859 0.179 0 0.322 0 0.501 0 0.026-0.628 0.035-1.251 0.348-1.568 0.351-0.356 0.685-0.314 1.708-0.314z"></path>
</svg>
