<!-- Generated by IcoMoon.io -->
<svg version="1.1" xmlns="http://www.w3.org/2000/svg" width="64" height="32" viewBox="0 0 64 32">
<title>HOME</title>
<path d="M6.827 3.52c0 0.177-0.143 0.32-0.32 0.32-0.084 0-0.16-0.033-0.218-0.086l-0.001 0.001-2.875-2.875-2.869 2.868c-0.058 0.057-0.137 0.092-0.225 0.092-0.177 0-0.32-0.143-0.32-0.32 0-0.091 0.038-0.172 0.098-0.231l3.084-3.085c0.058-0.060 0.14-0.098 0.231-0.098v0 0c0 0 0 0 0 0 0.006 0 0.011 0 0.017 0 0.001 0 0.002 0 0.003 0 0.005 0 0.010 0.001 0.014 0.001 0 0 0 0 0.001 0 0.078 0.009 0.148 0.045 0.199 0.1l0-0 1.259 1.259v-0.294c0-0.177 0.143-0.32 0.32-0.32s0.32 0.143 0.32 0.32v0.934l1.194 1.194-0.001 0.001c0.053 0.057 0.087 0.133 0.087 0.218zM6.187 4.053v2.24c0 0.177-0.143 0.32-0.32 0.32h-0.64v-2.56h-1.28v2.56h-2.987c-0.177 0-0.32-0.143-0.32-0.32v-2.24l2.773-2.773 2.773 2.773zM2.88 4.053h-1.28v1.28h1.28v-1.28z"></path>
</svg>
