<!-- Generated by IcoMoon.io -->
<svg version="1.1" xmlns="http://www.w3.org/2000/svg" width="64" height="32" viewBox="0 0 64 32">
<title>image</title>
<path d="M6.507 6.827h-6.187c-0.177 0-0.32-0.143-0.32-0.32v-6.187c0-0.177 0.143-0.32 0.32-0.32h6.187c0.177 0 0.32 0.143 0.32 0.32v6.187c0 0.177-0.143 0.32-0.32 0.32zM6.187 0.64h-5.547v5.547h5.547v-5.547zM1.387 0.96h1.173c0.177 0 0.32 0.143 0.32 0.32s-0.143 0.32-0.32 0.32v0h-0.96v0.96c0 0.177-0.143 0.32-0.32 0.32s-0.32-0.143-0.32-0.32v0-1.6h0.427zM0.96 4.267v0c0-0.177 0.143-0.32 0.32-0.32s0.32 0.143 0.32 0.32v0 0.96l0.96 0c0.177 0 0.32 0.143 0.32 0.32s-0.143 0.32-0.32 0.32v0h-1.6v-1.6zM4.267 0.96v0h1.6v1.6c0 0.177-0.143 0.32-0.32 0.32s-0.32-0.143-0.32-0.32v0-0.96h-0.96c-0.177 0-0.32-0.143-0.32-0.32s0.143-0.32 0.32-0.32zM4.267 5.227v-0h0.96v-0.96c0-0.177 0.143-0.32 0.32-0.32s0.32 0.143 0.32 0.32v0 1.6h-1.6c-0.177 0-0.32-0.143-0.32-0.32s0.143-0.32 0.32-0.32z"></path>
</svg>
