<!-- Generated by IcoMoon.io -->
<svg version="1.1" xmlns="http://www.w3.org/2000/svg" width="64" height="32" viewBox="0 0 64 32">
<title>instagram</title>
<path d="M4.843 5.504h-4.096c-0.377 0-0.683-0.306-0.683-0.683v-4.096c0-0.377 0.306-0.683 0.683-0.683h4.096c0.377 0 0.683 0.306 0.683 0.683v4.096c0 0.377-0.306 0.683-0.683 0.683zM2.795 1.715c-0.426 0-0.792 0.252-0.96 0.614h-0.001c-0.002 0.004-0.003 0.008-0.005 0.012-0.010 0.022-0.019 0.045-0.027 0.068-0.004 0.011-0.009 0.022-0.012 0.033-0.008 0.024-0.014 0.048-0.020 0.073-0.003 0.011-0.006 0.023-0.009 0.034-0.006 0.026-0.009 0.052-0.013 0.079-0.002 0.011-0.004 0.021-0.005 0.032-0.004 0.037-0.006 0.075-0.006 0.113 0 0.584 0.474 1.058 1.058 1.058s1.058-0.474 1.058-1.058c0-0.038-0.002-0.076-0.006-0.113-0.001-0.011-0.003-0.021-0.005-0.032-0.004-0.026-0.007-0.053-0.013-0.079-0.003-0.012-0.006-0.023-0.009-0.034-0.006-0.025-0.012-0.049-0.020-0.073-0.004-0.011-0.008-0.022-0.012-0.033-0.009-0.023-0.017-0.046-0.027-0.068-0.002-0.004-0.003-0.008-0.005-0.012h-0.001c-0.168-0.362-0.534-0.614-0.96-0.614zM4.911 0.93c0-0.151-0.122-0.273-0.273-0.273h-0.546c-0.151 0-0.273 0.122-0.273 0.273v0.546c0 0.151 0.122 0.273 0.273 0.273h0.546c0.151 0 0.273-0.122 0.273-0.273v-0.546zM4.911 2.329h-0.503c0.039 0.141 0.060 0.29 0.060 0.444 0 0.924-0.749 1.672-1.673 1.672s-1.673-0.749-1.673-1.672c0-0.154 0.021-0.303 0.060-0.444h-0.503v2.287c0 0.151 0.122 0.273 0.273 0.273h3.686c0.151 0 0.273-0.122 0.273-0.273v-2.287z"></path>
</svg>
