<!-- Generated by IcoMoon.io -->
<svg version="1.1" xmlns="http://www.w3.org/2000/svg" width="64" height="32" viewBox="0 0 64 32">
<title>LINE-GRAPH</title>
<path d="M6.507 6.827h-6.187c-0.177 0-0.32-0.143-0.32-0.32v-6.187c0-0.176 0.143-0.32 0.32-0.32h6.187c0.177 0 0.32 0.143 0.32 0.32v6.187c0 0.177-0.143 0.32-0.32 0.32zM6.187 0.64h-5.547v5.547h5.547v-5.547zM1.113 3.464v-0l0.853-0.533c0.049-0.030 0.106-0.047 0.167-0.047 0.066 0 0.128 0.020 0.179 0.055l0.001-0.002 1.415 0.943 1.629-1.15c0.053-0.039 0.118-0.062 0.189-0.062 0.177 0 0.32 0.143 0.32 0.32 0 0.107-0.052 0.201-0.133 0.259h0l-1.814 1.28c-0.052 0.038-0.117 0.061-0.187 0.061-0.068 0-0.132-0.022-0.184-0.058l-1.42-0.947-0.669 0.418c-0.051 0.035-0.114 0.056-0.181 0.056-0.177 0-0.32-0.143-0.32-0.32 0-0.115 0.061-0.216 0.153-0.273z"></path>
</svg>
