<!-- Generated by IcoMoon.io -->
<svg version="1.1" xmlns="http://www.w3.org/2000/svg" width="64" height="32" viewBox="0 0 64 32">
<title>MAGNIFYING-GLASS</title>
<path d="M3.694 3.196c0.064 0.064 0.103 0.152 0.103 0.249 0 0.194-0.158 0.352-0.352 0.352-0.097 0-0.185-0.039-0.249-0.103v0l-1.032-1.031c-0.21 0.124-0.453 0.196-0.714 0.196-0.778 0-1.408-0.63-1.408-1.408s0.63-1.408 1.408-1.408c0.778 0 1.408 0.63 1.408 1.408 0 0.261-0.072 0.505-0.196 0.714l1.032 1.032zM1.451 0.394c-0.583 0-1.056 0.473-1.056 1.056s0.473 1.056 1.056 1.056c0.583 0 1.056-0.473 1.056-1.056s-0.473-1.056-1.056-1.056z"></path>
</svg>
