<!-- Generated by IcoMoon.io -->
<svg version="1.1" xmlns="http://www.w3.org/2000/svg" width="64" height="32" viewBox="0 0 64 32">
<title>pinterest</title>
<path d="M1.931 3.596c-0.045 0.178-0.090 0.364-0.136 0.546-0.046 0.18-0.086 0.362-0.153 0.527-0.111 0.273-0.251 0.537-0.436 0.751-0.123 0.142-0.097 0.086-0.134 0.078-0.028-0.006-0.030-0.034-0.036-0.074-0.030-0.217-0.010-0.468 0.002-0.712 0.013-0.278 0.071-0.509 0.126-0.74 0.103-0.44 0.202-0.872 0.306-1.315 0.007-0.029 0.026-0.078 0.019-0.095-0.047-0.123-0.078-0.234-0.092-0.363-0.016-0.148-0.004-0.287 0.030-0.414 0.059-0.226 0.195-0.426 0.404-0.499 0.133-0.046 0.281-0.025 0.37 0.028 0.092 0.055 0.156 0.142 0.185 0.266 0.032 0.131 0.008 0.288-0.017 0.403-0.057 0.26-0.132 0.455-0.2 0.706-0.034 0.124-0.072 0.252-0.040 0.387 0.029 0.123 0.093 0.208 0.181 0.272 0.091 0.066 0.198 0.102 0.347 0.097 0.262-0.009 0.444-0.177 0.566-0.335 0.195-0.253 0.313-0.594 0.357-1 0.014-0.131 0.025-0.281 0.015-0.43-0.019-0.274-0.104-0.494-0.24-0.665-0.129-0.163-0.313-0.292-0.536-0.365-0.221-0.072-0.527-0.096-0.799-0.050-0.494 0.085-0.843 0.366-1.049 0.754-0.108 0.203-0.179 0.437-0.179 0.727 0 0.224 0.055 0.398 0.145 0.533 0.028 0.043 0.070 0.078 0.098 0.127 0.039 0.070-0.006 0.173-0.025 0.248-0.023 0.091-0.026 0.216-0.132 0.218-0.044 0.001-0.099-0.031-0.136-0.052-0.278-0.154-0.447-0.434-0.517-0.797-0.042-0.221-0.042-0.478 0-0.691 0.041-0.206 0.116-0.396 0.2-0.551 0.174-0.321 0.428-0.577 0.738-0.76 0.238-0.141 0.507-0.24 0.834-0.287 0.108-0.016 0.221-0.022 0.342-0.028 0.356-0.017 0.679 0.064 0.923 0.173 0.257 0.115 0.462 0.268 0.636 0.458 0.179 0.195 0.309 0.422 0.391 0.706 0.043 0.148 0.085 0.305 0.085 0.488s-0.039 0.344-0.066 0.505c-0.101 0.603-0.388 1.097-0.819 1.378-0.104 0.068-0.231 0.131-0.374 0.173-0.142 0.041-0.305 0.073-0.478 0.060-0.169-0.012-0.307-0.057-0.423-0.123s-0.212-0.145-0.281-0.265z"></path>
</svg>
