<!-- Generated by IcoMoon.io -->
<svg version="1.1" xmlns="http://www.w3.org/2000/svg" width="64" height="32" viewBox="0 0 64 32">
<title>twitter</title>
<path d="M3.736 0.128c0.434-0.008 0.665 0.15 0.886 0.351 0.187-0.016 0.431-0.121 0.574-0.194 0.046-0.025 0.093-0.051 0.139-0.076-0.082 0.221-0.193 0.394-0.364 0.526-0.038 0.029-0.076 0.068-0.123 0.087 0 0.001 0 0.002 0 0.003 0.243-0.002 0.444-0.112 0.634-0.172 0 0.001 0 0.002 0 0.003-0.1 0.159-0.236 0.32-0.38 0.436-0.058 0.046-0.117 0.093-0.175 0.139 0.003 0.258-0.004 0.503-0.052 0.72-0.28 1.258-1.021 2.111-2.195 2.477-0.422 0.131-1.103 0.185-1.585 0.065-0.239-0.059-0.456-0.127-0.659-0.215-0.113-0.049-0.217-0.103-0.317-0.164-0.033-0.020-0.066-0.040-0.098-0.060 0.109 0.003 0.236 0.033 0.358 0.013 0.11-0.018 0.218-0.013 0.32-0.035 0.253-0.056 0.478-0.129 0.672-0.243 0.094-0.055 0.237-0.119 0.304-0.199-0.126 0.002-0.24-0.027-0.333-0.060-0.362-0.128-0.573-0.363-0.711-0.717 0.11 0.012 0.426 0.041 0.5-0.022-0.138-0.008-0.271-0.088-0.366-0.147-0.292-0.182-0.529-0.488-0.528-0.959 0.038 0.018 0.077 0.036 0.115 0.054 0.073 0.031 0.148 0.047 0.235 0.066 0.037 0.008 0.111 0.029 0.153 0.013-0.002 0-0.004 0-0.006 0-0.056-0.065-0.148-0.109-0.205-0.18-0.187-0.232-0.362-0.59-0.252-1.016 0.028-0.108 0.073-0.204 0.12-0.292 0.002 0.001 0.004 0.002 0.006 0.003 0.022 0.046 0.070 0.079 0.101 0.117 0.096 0.118 0.213 0.225 0.333 0.319 0.409 0.32 0.778 0.517 1.369 0.662 0.15 0.037 0.324 0.065 0.503 0.066-0.050-0.147-0.034-0.384 0.005-0.526 0.1-0.357 0.316-0.614 0.634-0.752 0.076-0.033 0.16-0.057 0.249-0.076 0.046-0.005 0.091-0.011 0.137-0.016z"></path>
</svg>
