<svg aria-hidden="true" style="position: absolute; width: 0; height: 0; overflow: hidden;" version="1.1" xmlns="http://www.w3.org/2000/svg" xmlns:xlink="http://www.w3.org/1999/xlink">
<defs>
<symbol id="icon-ALARM" viewBox="0 0 64 32">
<path d="M6.558 2.027c-0.338-0.788-0.97-1.421-1.758-1.758 0.213-0.168 0.482-0.269 0.774-0.269 0.692 0 1.253 0.561 1.253 1.253 0 0.292-0.101 0.561-0.269 0.774zM6.507 3.413c0 0.822-0.323 1.567-0.845 2.121l0.433 0.433c0.057 0.057 0.093 0.136 0.093 0.224 0 0.175-0.142 0.316-0.316 0.316-0.087 0-0.167-0.035-0.224-0.093l-0.465-0.465c-0.502 0.35-1.11 0.557-1.769 0.557-0.657 0-1.265-0.206-1.766-0.555l-0.461 0.461c-0.058 0.058-0.138 0.094-0.226 0.094-0.177 0-0.32-0.143-0.32-0.32 0-0.088 0.036-0.168 0.094-0.226l0.429-0.429c-0.521-0.554-0.843-1.298-0.843-2.118 0-1.708 1.385-3.093 3.093-3.093s3.093 1.385 3.093 3.093zM3.413 0.96c-1.355 0-2.453 1.098-2.453 2.453s1.098 2.453 2.453 2.453 2.453-1.098 2.453-2.453c0-1.355-1.098-2.453-2.453-2.453zM4.693 3.733h-1.28c-0.177 0-0.32-0.143-0.32-0.32v-1.707c0-0.177 0.143-0.32 0.32-0.32s0.32 0.143 0.32 0.32v1.386h0.96c0.177 0 0.32 0.143 0.32 0.32s-0.143 0.32-0.32 0.32zM0.275 2.070c-0.172-0.218-0.275-0.492-0.275-0.79 0-0.707 0.573-1.28 1.28-1.28 0.299 0 0.573 0.103 0.791 0.275-0.805 0.345-1.451 0.991-1.796 1.796z"></path>
</symbol>
<symbol id="icon-BOOK" viewBox="0 0 64 32">
<path d="M6.627 5.523l-3.087 1.277c-0.039 0.017-0.082 0.026-0.127 0.026s-0.088-0.009-0.127-0.026l-3.087-1.277c-0.117-0.048-0.199-0.162-0.199-0.296v-4.907c0-0.177 0.143-0.32 0.32-0.32 0.043 0 0.085 0.009 0.122 0.024h0l0 0c0.001 0 0.002 0.001 0.003 0.001l2.968 1.228 2.968-1.228c0.001-0 0.002-0.001 0.003-0.001l0.001-0c0.038-0.016 0.079-0.024 0.122-0.024 0.177 0 0.32 0.143 0.32 0.32v4.907c0 0.134-0.083 0.249-0.199 0.296zM3.093 1.814l-2.453-1.015v4.214l2.453 1.015v-4.214zM6.187 0.799l-2.453 1.015v4.214l2.453-1.015v-4.214zM4.241 2.269l1.173-0.533c0.040-0.018 0.085-0.029 0.132-0.029 0.177 0 0.32 0.143 0.32 0.32 0 0.13-0.077 0.241-0.188 0.291v0l-1.173 0.533c-0.041 0.019-0.085 0.029-0.132 0.029-0.177 0-0.32-0.143-0.32-0.32 0-0.13 0.077-0.241 0.188-0.291zM4.241 3.442v0l1.173-0.533c0.040-0.018 0.085-0.029 0.132-0.029 0.177 0 0.32 0.143 0.32 0.32 0 0.13-0.077 0.241-0.188 0.291l-1.173 0.533c-0.041 0.018-0.085 0.029-0.132 0.029-0.177 0-0.32-0.143-0.32-0.32 0-0.13 0.077-0.241 0.188-0.291zM4.241 4.615v0l1.173-0.533c0.040-0.018 0.085-0.029 0.132-0.029 0.177 0 0.32 0.143 0.32 0.32 0 0.13-0.077 0.241-0.188 0.291v0l-1.173 0.533c-0.041 0.019-0.085 0.029-0.132 0.029-0.177 0-0.32-0.143-0.32-0.32 0-0.13 0.077-0.241 0.188-0.291zM1.28 1.707c0.047 0 0.092 0.010 0.132 0.029v0l1.173 0.533c0.111 0.050 0.188 0.162 0.188 0.291 0 0.177-0.143 0.32-0.32 0.32-0.047 0-0.092-0.010-0.132-0.029v0l-1.173-0.533c-0.111-0.050-0.188-0.162-0.188-0.291 0-0.177 0.143-0.32 0.32-0.32zM1.28 2.88c0.047 0 0.092 0.010 0.132 0.029v0l1.173 0.533c0.111 0.050 0.188 0.162 0.188 0.291 0 0.177-0.143 0.32-0.32 0.32-0.047 0-0.092-0.010-0.132-0.029v0l-1.173-0.533c-0.111-0.050-0.188-0.162-0.188-0.291 0-0.177 0.143-0.32 0.32-0.32zM1.28 4.053c0.047 0 0.092 0.010 0.132 0.029v0l1.173 0.533c0.111 0.050 0.188 0.162 0.188 0.291 0 0.177-0.143 0.32-0.32 0.32-0.047 0-0.092-0.010-0.132-0.029v0l-1.173-0.533c-0.111-0.050-0.188-0.162-0.188-0.291 0-0.177 0.143-0.32 0.32-0.32z"></path>
</symbol>
<symbol id="icon-COMPUTER_OK" viewBox="0 0 64 32">
<path d="M6.4 4.907h-2.027v0.533l0.427 0.427v0.107h-2.773v-0.107l0.427-0.427v-0.533h-2.027c-0.177 0-0.32-0.143-0.32-0.32v-4.266c0-0.177 0.143-0.32 0.32-0.32h5.973c0.177 0 0.32 0.143 0.32 0.32v4.266c0 0.177-0.143 0.32-0.32 0.32zM6.293 0.427h-5.76v3.627h5.76v-3.627zM2.773 1.92c0.088 0 0.168 0.036 0.226 0.094v0l0.2 0.2 0.627-0.627c0.058-0.058 0.138-0.094 0.226-0.094 0.177 0 0.32 0.143 0.32 0.32 0 0.088-0.036 0.168-0.094 0.226v0l-0.853 0.853c-0.058 0.058-0.138 0.094-0.226 0.094s-0.168-0.036-0.226-0.094v0l-0.427-0.427c-0.058-0.058-0.094-0.138-0.094-0.226 0-0.177 0.143-0.32 0.32-0.32z"></path>
</symbol>
<symbol id="icon-facebook" viewBox="0 0 64 32">
<path d="M2.579 0.042c0 0.315 0 0.879 0 0.879s-0.648-0.065-0.81 0.184c-0.089 0.136-0.036 0.533-0.044 0.819 0.283 0 0.577 0 0.86 0-0.073 0.334-0.125 0.56-0.178 0.849-0.245 0-0.686 0-0.686 0v2.732c0 0-0.81 0-1.191 0 0-0.842-0-1.824 0-2.721-0.185 0-0.322 0-0.507 0 0-0.315 0-0.544 0-0.859 0.179 0 0.322 0 0.501 0 0.026-0.628 0.035-1.251 0.348-1.568 0.351-0.356 0.685-0.314 1.708-0.314z"></path>
</symbol>
<symbol id="icon-HOME" viewBox="0 0 64 32">
<path d="M6.827 3.52c0 0.177-0.143 0.32-0.32 0.32-0.084 0-0.16-0.033-0.218-0.086l-0.001 0.001-2.875-2.875-2.869 2.868c-0.058 0.057-0.137 0.092-0.225 0.092-0.177 0-0.32-0.143-0.32-0.32 0-0.091 0.038-0.172 0.098-0.231l3.084-3.085c0.058-0.060 0.14-0.098 0.231-0.098v0 0c0 0 0 0 0 0 0.006 0 0.011 0 0.017 0 0.001 0 0.002 0 0.003 0 0.005 0 0.010 0.001 0.014 0.001 0 0 0 0 0.001 0 0.078 0.009 0.148 0.045 0.199 0.1l0-0 1.259 1.259v-0.294c0-0.177 0.143-0.32 0.32-0.32s0.32 0.143 0.32 0.32v0.934l1.194 1.194-0.001 0.001c0.053 0.057 0.087 0.133 0.087 0.218zM6.187 4.053v2.24c0 0.177-0.143 0.32-0.32 0.32h-0.64v-2.56h-1.28v2.56h-2.987c-0.177 0-0.32-0.143-0.32-0.32v-2.24l2.773-2.773 2.773 2.773zM2.88 4.053h-1.28v1.28h1.28v-1.28z"></path>
</symbol>
<symbol id="icon-image" viewBox="0 0 64 32">
<path d="M6.507 6.827h-6.187c-0.177 0-0.32-0.143-0.32-0.32v-6.187c0-0.177 0.143-0.32 0.32-0.32h6.187c0.177 0 0.32 0.143 0.32 0.32v6.187c0 0.177-0.143 0.32-0.32 0.32zM6.187 0.64h-5.547v5.547h5.547v-5.547zM1.387 0.96h1.173c0.177 0 0.32 0.143 0.32 0.32s-0.143 0.32-0.32 0.32v0h-0.96v0.96c0 0.177-0.143 0.32-0.32 0.32s-0.32-0.143-0.32-0.32v0-1.6h0.427zM0.96 4.267v0c0-0.177 0.143-0.32 0.32-0.32s0.32 0.143 0.32 0.32v0 0.96l0.96 0c0.177 0 0.32 0.143 0.32 0.32s-0.143 0.32-0.32 0.32v0h-1.6v-1.6zM4.267 0.96v0h1.6v1.6c0 0.177-0.143 0.32-0.32 0.32s-0.32-0.143-0.32-0.32v0-0.96h-0.96c-0.177 0-0.32-0.143-0.32-0.32s0.143-0.32 0.32-0.32zM4.267 5.227v-0h0.96v-0.96c0-0.177 0.143-0.32 0.32-0.32s0.32 0.143 0.32 0.32v0 1.6h-1.6c-0.177 0-0.32-0.143-0.32-0.32s0.143-0.32 0.32-0.32z"></path>
</symbol>
<symbol id="icon-instagram" viewBox="0 0 64 32">
<path d="M4.843 5.504h-4.096c-0.377 0-0.683-0.306-0.683-0.683v-4.096c0-0.377 0.306-0.683 0.683-0.683h4.096c0.377 0 0.683 0.306 0.683 0.683v4.096c0 0.377-0.306 0.683-0.683 0.683zM2.795 1.715c-0.426 0-0.792 0.252-0.96 0.614h-0.001c-0.002 0.004-0.003 0.008-0.005 0.012-0.010 0.022-0.019 0.045-0.027 0.068-0.004 0.011-0.009 0.022-0.012 0.033-0.008 0.024-0.014 0.048-0.020 0.073-0.003 0.011-0.006 0.023-0.009 0.034-0.006 0.026-0.009 0.052-0.013 0.079-0.002 0.011-0.004 0.021-0.005 0.032-0.004 0.037-0.006 0.075-0.006 0.113 0 0.584 0.474 1.058 1.058 1.058s1.058-0.474 1.058-1.058c0-0.038-0.002-0.076-0.006-0.113-0.001-0.011-0.003-0.021-0.005-0.032-0.004-0.026-0.007-0.053-0.013-0.079-0.003-0.012-0.006-0.023-0.009-0.034-0.006-0.025-0.012-0.049-0.020-0.073-0.004-0.011-0.008-0.022-0.012-0.033-0.009-0.023-0.017-0.046-0.027-0.068-0.002-0.004-0.003-0.008-0.005-0.012h-0.001c-0.168-0.362-0.534-0.614-0.96-0.614zM4.911 0.93c0-0.151-0.122-0.273-0.273-0.273h-0.546c-0.151 0-0.273 0.122-0.273 0.273v0.546c0 0.151 0.122 0.273 0.273 0.273h0.546c0.151 0 0.273-0.122 0.273-0.273v-0.546zM4.911 2.329h-0.503c0.039 0.141 0.060 0.29 0.060 0.444 0 0.924-0.749 1.672-1.673 1.672s-1.673-0.749-1.673-1.672c0-0.154 0.021-0.303 0.060-0.444h-0.503v2.287c0 0.151 0.122 0.273 0.273 0.273h3.686c0.151 0 0.273-0.122 0.273-0.273v-2.287z"></path>
</symbol>
<symbol id="icon-LINE-GRAPH" viewBox="0 0 64 32">
<path d="M6.507 6.827h-6.187c-0.177 0-0.32-0.143-0.32-0.32v-6.187c0-0.176 0.143-0.32 0.32-0.32h6.187c0.177 0 0.32 0.143 0.32 0.32v6.187c0 0.177-0.143 0.32-0.32 0.32zM6.187 0.64h-5.547v5.547h5.547v-5.547zM1.113 3.464v-0l0.853-0.533c0.049-0.030 0.106-0.047 0.167-0.047 0.066 0 0.128 0.020 0.179 0.055l0.001-0.002 1.415 0.943 1.629-1.15c0.053-0.039 0.118-0.062 0.189-0.062 0.177 0 0.32 0.143 0.32 0.32 0 0.107-0.052 0.201-0.133 0.259h0l-1.814 1.28c-0.052 0.038-0.117 0.061-0.187 0.061-0.068 0-0.132-0.022-0.184-0.058l-1.42-0.947-0.669 0.418c-0.051 0.035-0.114 0.056-0.181 0.056-0.177 0-0.32-0.143-0.32-0.32 0-0.115 0.061-0.216 0.153-0.273z"></path>
</symbol>
<symbol id="icon-MAGNIFYING-GLASS"  viewBox="0 0 64 32">
<path d="M3.694 3.196c0.064 0.064 0.103 0.152 0.103 0.249 0 0.194-0.158 0.352-0.352 0.352-0.097 0-0.185-0.039-0.249-0.103v0l-1.032-1.031c-0.21 0.124-0.453 0.196-0.714 0.196-0.778 0-1.408-0.63-1.408-1.408s0.63-1.408 1.408-1.408c0.778 0 1.408 0.63 1.408 1.408 0 0.261-0.072 0.505-0.196 0.714l1.032 1.032zM1.451 0.394c-0.583 0-1.056 0.473-1.056 1.056s0.473 1.056 1.056 1.056c0.583 0 1.056-0.473 1.056-1.056s-0.473-1.056-1.056-1.056z"></path>
</symbol>
<symbol id="icon-pinterest" viewBox="0 0 64 32">
<path d="M1.931 3.596c-0.045 0.178-0.090 0.364-0.136 0.546-0.046 0.18-0.086 0.362-0.153 0.527-0.111 0.273-0.251 0.537-0.436 0.751-0.123 0.142-0.097 0.086-0.134 0.078-0.028-0.006-0.030-0.034-0.036-0.074-0.030-0.217-0.010-0.468 0.002-0.712 0.013-0.278 0.071-0.509 0.126-0.74 0.103-0.44 0.202-0.872 0.306-1.315 0.007-0.029 0.026-0.078 0.019-0.095-0.047-0.123-0.078-0.234-0.092-0.363-0.016-0.148-0.004-0.287 0.030-0.414 0.059-0.226 0.195-0.426 0.404-0.499 0.133-0.046 0.281-0.025 0.37 0.028 0.092 0.055 0.156 0.142 0.185 0.266 0.032 0.131 0.008 0.288-0.017 0.403-0.057 0.26-0.132 0.455-0.2 0.706-0.034 0.124-0.072 0.252-0.040 0.387 0.029 0.123 0.093 0.208 0.181 0.272 0.091 0.066 0.198 0.102 0.347 0.097 0.262-0.009 0.444-0.177 0.566-0.335 0.195-0.253 0.313-0.594 0.357-1 0.014-0.131 0.025-0.281 0.015-0.43-0.019-0.274-0.104-0.494-0.24-0.665-0.129-0.163-0.313-0.292-0.536-0.365-0.221-0.072-0.527-0.096-0.799-0.050-0.494 0.085-0.843 0.366-1.049 0.754-0.108 0.203-0.179 0.437-0.179 0.727 0 0.224 0.055 0.398 0.145 0.533 0.028 0.043 0.070 0.078 0.098 0.127 0.039 0.070-0.006 0.173-0.025 0.248-0.023 0.091-0.026 0.216-0.132 0.218-0.044 0.001-0.099-0.031-0.136-0.052-0.278-0.154-0.447-0.434-0.517-0.797-0.042-0.221-0.042-0.478 0-0.691 0.041-0.206 0.116-0.396 0.2-0.551 0.174-0.321 0.428-0.577 0.738-0.76 0.238-0.141 0.507-0.24 0.834-0.287 0.108-0.016 0.221-0.022 0.342-0.028 0.356-0.017 0.679 0.064 0.923 0.173 0.257 0.115 0.462 0.268 0.636 0.458 0.179 0.195 0.309 0.422 0.391 0.706 0.043 0.148 0.085 0.305 0.085 0.488s-0.039 0.344-0.066 0.505c-0.101 0.603-0.388 1.097-0.819 1.378-0.104 0.068-0.231 0.131-0.374 0.173-0.142 0.041-0.305 0.073-0.478 0.060-0.169-0.012-0.307-0.057-0.423-0.123s-0.212-0.145-0.281-0.265z"></path>
</symbol>
<symbol id="icon-SHOPING-CART" viewBox="0 0 64 32">
<path d="M3.782 0.781h0l-0.528 1.173c-0.026 0.058-0.082 0.099-0.149 0.103v0l-1.521 0.101 0.088 0.251h1.656c0.194 0 0.352 0.158 0.352 0.352s-0.158 0.352-0.352 0.352-0.352-0.158-0.352-0.352h-1.643c0 0.194-0.158 0.352-0.352 0.352s-0.352-0.158-0.352-0.352c0-0.195 0.158-0.352 0.352-0.352h0.318l-0.678-1.936h-0.403c-0.097 0-0.176-0.079-0.176-0.176s0.079-0.176 0.176-0.176h0.528c0.077 0 0.141 0.049 0.166 0.118l0.001-0 0.102 0.293h2.606c0.097 0 0.176 0.079 0.176 0.176 0 0.026-0.006 0.050-0.016 0.072zM1.139 0.885l0.325 0.93 1.512-0.101 0.373-0.829h-2.211z"></path>
</symbol>
<symbol id="icon-twitter" viewBox="0 0 64 32">
<path d="M3.736 0.128c0.434-0.008 0.665 0.15 0.886 0.351 0.187-0.016 0.431-0.121 0.574-0.194 0.046-0.025 0.093-0.051 0.139-0.076-0.082 0.221-0.193 0.394-0.364 0.526-0.038 0.029-0.076 0.068-0.123 0.087 0 0.001 0 0.002 0 0.003 0.243-0.002 0.444-0.112 0.634-0.172 0 0.001 0 0.002 0 0.003-0.1 0.159-0.236 0.32-0.38 0.436-0.058 0.046-0.117 0.093-0.175 0.139 0.003 0.258-0.004 0.503-0.052 0.72-0.28 1.258-1.021 2.111-2.195 2.477-0.422 0.131-1.103 0.185-1.585 0.065-0.239-0.059-0.456-0.127-0.659-0.215-0.113-0.049-0.217-0.103-0.317-0.164-0.033-0.020-0.066-0.040-0.098-0.060 0.109 0.003 0.236 0.033 0.358 0.013 0.11-0.018 0.218-0.013 0.32-0.035 0.253-0.056 0.478-0.129 0.672-0.243 0.094-0.055 0.237-0.119 0.304-0.199-0.126 0.002-0.24-0.027-0.333-0.060-0.362-0.128-0.573-0.363-0.711-0.717 0.11 0.012 0.426 0.041 0.5-0.022-0.138-0.008-0.271-0.088-0.366-0.147-0.292-0.182-0.529-0.488-0.528-0.959 0.038 0.018 0.077 0.036 0.115 0.054 0.073 0.031 0.148 0.047 0.235 0.066 0.037 0.008 0.111 0.029 0.153 0.013-0.002 0-0.004 0-0.006 0-0.056-0.065-0.148-0.109-0.205-0.18-0.187-0.232-0.362-0.59-0.252-1.016 0.028-0.108 0.073-0.204 0.12-0.292 0.002 0.001 0.004 0.002 0.006 0.003 0.022 0.046 0.070 0.079 0.101 0.117 0.096 0.118 0.213 0.225 0.333 0.319 0.409 0.32 0.778 0.517 1.369 0.662 0.15 0.037 0.324 0.065 0.503 0.066-0.050-0.147-0.034-0.384 0.005-0.526 0.1-0.357 0.316-0.614 0.634-0.752 0.076-0.033 0.16-0.057 0.249-0.076 0.046-0.005 0.091-0.011 0.137-0.016z"></path>
</symbol>
</defs>
</svg>
